<?xml version="1.0" encoding="utf-8" ?>
<svg xmlns="http://www.w3.org/2000/svg" xmlns:xlink="http://www.w3.org/1999/xlink" width="800" height="800">
	<path d="M443.802 395.824C445.223 396.826 447.357 398.481 447.737 400.289C448.22 402.592 447.791 404.877 446.964 407.027C445.85 404.841 446.958 402.461 446.175 400.289L445.952 399.805C445.599 398.795 445.547 398.549 444.637 397.86C443.975 397.359 443.996 396.619 443.802 395.824Z"/>
	<path d="M446.964 407.027C446.087 408.33 444.945 409.797 443.297 410.102C440.594 410.603 438.077 409.797 435.865 408.279C435.214 407.276 435.077 406.573 434.977 405.376C434.689 401.928 434.573 398.867 436.955 396.191C437.887 395.144 439.224 394.613 440.625 394.631C441.888 394.647 442.888 394.931 443.802 395.824C443.996 396.619 443.975 397.359 444.637 397.86C445.547 398.549 445.599 398.795 445.952 399.805L446.175 400.289C446.958 402.461 445.85 404.841 446.964 407.027Z"/>
	<path d="M435.953 418.927C437.718 419.62 438.797 420.771 439.959 422.224C440.185 423.89 439.707 425.033 439.586 426.655L438.361 439.062C438.189 440.904 438.311 442.81 437.967 444.629C437.528 446.949 437.147 450.026 437.726 452.344C438.284 454.577 437.929 456.954 438.354 459.225C438.56 460.324 438.602 461.385 438.63 462.5C437.946 463.813 437.427 463.727 436.07 464.215C434.734 463.321 433.247 462.006 432.277 460.708C429.866 457.483 429.928 448.232 430.612 444.467C431.8 437.925 431.504 431.171 433.277 424.67C433.869 422.498 434.358 420.593 435.953 418.927Z"/>
	<path d="M453.426 116.279L454.492 116.252C455.762 116.451 455.484 116.812 455.515 117.92L455.569 139.206C455.571 140.726 455.188 144.286 455.71 145.622C456.009 146.386 457.717 147.847 458.335 148.532L436.456 148.725L430.654 148.627C432.704 145.642 434.363 142.355 436.288 139.281C441.402 131.115 446.668 123.185 453.426 116.279Z"/>
	<path d="M411.61 417.699L412.305 417.528C415.316 418.196 416.654 419.951 418.693 422.096C417.711 423.138 416.789 424.047 415.625 424.884C414.84 424.682 414.268 424.48 413.456 424.64C410.134 425.295 407.872 425.826 405.004 427.684L407.617 430.66C410.468 434.209 414.169 437.137 417.726 439.961C419.768 441.583 422.254 442.981 423.702 445.197C425.941 448.624 425.783 452.243 425.064 456.055L424.91 456.84C423.724 459.598 420.045 461.718 417.413 462.831C414.072 464.244 410.051 464.277 406.703 462.884C404.527 461.199 402.903 459.527 402.701 456.641C402.616 455.417 403.254 454.195 404.223 453.435C404.274 453.395 405.063 452.892 405.273 452.934C405.868 453.052 407.35 455.667 408.242 456.178C409.388 456.834 411.098 457.022 412.388 457.271C413.67 456.609 415.975 455.807 416.995 454.892C417.643 454.311 418.421 452.289 418.884 451.446C413.184 443.266 400.881 439.179 398.044 429.187C397.877 428.599 397.487 427.705 397.44 427.125C397.397 426.593 398.669 423.514 399.029 423.001C401.261 419.814 407.962 418.169 411.61 417.699Z"/>
	<path d="M478.467 116.315L500.834 116.389L509.419 148.393C507.846 148.964 505.324 148.688 503.613 148.731L471.931 148.6C473.115 146.866 473.964 145.116 474.214 143.012L476.458 127.594C477.036 123.834 477.466 119.986 478.467 116.315Z"/>
	<path d="M373.126 421.216C377.386 421 380.342 421.126 383.736 424.077C384.321 425.138 384.458 425.813 384.493 427.023C384.653 432.465 383.596 436.455 379.701 440.472C374.241 446.104 364.544 451.595 356.619 451.649L355.859 451.651L355.451 452.148L355.63 452.488C356.522 453.845 357.697 454.504 359.266 454.785L359.875 454.883C362.796 455.372 365.605 454.973 368.527 454.7C376.088 453.992 383.618 452.397 391.016 450.709C394.28 449.964 397.659 448.805 400.977 448.407L401.131 449.023L399.724 450.156C396.735 451.71 393.979 453.713 391.01 455.31C384.96 458.564 378.93 460.516 372.266 462.006L370.587 462.352C363.144 463.33 355.753 463.338 349.656 458.544C348.724 456.261 348.258 454.549 348.303 452.087C348.494 441.645 356.758 433.103 363.629 426.121C366.098 423.613 369.71 422.024 373.126 421.216ZM373.508 428.535C367.95 431.254 365.432 433.73 362.075 438.896C361.072 440.439 359.812 442.239 359.16 443.957L359.058 444.279L363.203 442.991C368.216 440.574 374.94 435.909 377.289 430.664C377.268 429.463 377.395 429.428 376.562 428.59C375.542 428.538 374.527 428.442 373.508 428.535Z"/>
	<path d="M503.052 408.906C504.366 408.916 505.938 408.711 507.004 409.57C507.537 410.999 507.951 412.245 507.98 413.782C508.057 417.795 507.112 422.166 506.808 426.209L506.175 433.982C506.073 435.869 506.224 437.978 505.777 439.812C505.448 441.159 504.971 442.895 505.664 444.165C507.25 440.831 507.802 436.486 508.878 432.915C510.068 428.969 511.96 422.607 515.82 420.536C517.199 420.515 518.579 420.657 519.727 421.518C526.176 426.36 523.904 439.557 525.157 446.563C526.356 453.271 527.985 459.955 530.855 466.165C531.991 468.623 533.455 471.173 536.133 472.172C538.184 472.111 540.239 470.563 541.72 469.222C542.739 468.299 543.81 467.541 544.943 466.765C543.92 469.17 542.091 472.009 540.187 473.802C537.373 476.451 534.779 476.778 531.145 476.757L530.712 476.489L527.56 474.414C524.344 471.672 522.746 466.668 521.627 462.722C518.817 452.815 517.549 442.704 516.917 432.451C513.968 440.687 511.977 449.555 509.57 457.991C508.651 461.213 506.929 469.326 503.982 471.233C503.303 471.672 502.127 471.704 501.326 471.551C500.096 471.316 498.754 470.206 498.117 469.126C496.255 465.968 497.075 460.511 497.379 457.031L497.991 448.242C498.782 436.962 499.495 425.607 501.445 414.453C501.799 412.43 502.274 410.797 503.052 408.906Z"/>
	<path d="M480.934 410.935C482.016 410.833 483.3 410.704 484.375 410.884C485.614 411.092 486.384 412.103 486.914 413.157C488.449 416.21 488.293 420.845 487.381 424.067L487.167 424.805L483.05 436.543C482.646 438.231 482.789 440.247 482.769 441.983C482.716 446.526 482.985 450.771 483.29 455.273L483.519 467.383C483.589 468.438 483.933 469.451 483.987 470.508C484.115 473.013 483.39 483.119 484.241 484.627C489.232 483.749 494.155 482.301 499.071 481.069C501.539 480.45 504.104 479.628 506.641 479.454L507.316 480.078C507.212 480.32 507.167 480.596 507.004 480.803C506.954 480.866 487.814 485.927 484.897 487.557C484.319 489.899 484.438 494.803 484.921 497.168C485.51 500.045 485.29 503.285 485.461 506.228C485.66 509.647 485.998 512.871 486.006 516.344C486.01 518.073 486.295 519.275 485.352 520.75C482.036 522.314 474.222 518.333 470.694 517.187C459.914 513.686 448.517 511.291 437.237 510.138C431.92 509.594 426.827 509.863 421.517 508.859C416.762 508.002 412.771 507.191 408.588 504.631C408.182 503.105 408.479 501.207 408.54 499.622C415.573 497.664 422.647 497.284 429.883 496.737C432.314 496.553 434.835 496.795 437.222 496.245L476.608 486.286L476.992 486.218C477.073 484.047 477.041 481.63 476.682 479.49C475.811 474.298 476.326 468.493 476.249 463.213C476.164 457.457 475.633 451.839 475.762 446.034C472.775 448.939 469.603 451.808 465.794 453.595C463.352 454.741 460.891 455.259 458.272 454.279L457.718 454.059L455.836 453.282C454.099 452.434 451.756 450.649 451.283 448.638C450.955 447.244 451.082 445.533 451.091 444.105C451.124 438.803 452.246 435.16 454.831 430.486C456.894 426.755 459.702 423.42 463.995 422.326C468.653 421.138 471.919 422.301 475.893 424.633C476.451 423.404 476.516 421.801 476.752 420.467C477.44 416.581 478.098 413.877 480.934 410.935ZM477 489.851L436.036 502.796C439.793 503.679 443.366 503.993 447.167 504.479C454.722 505.791 462.557 506.51 469.935 508.682C473.087 509.61 475.903 511.348 479.105 512.344L478.947 511.793C478.135 508.822 478.232 505.765 478.173 502.711C478.094 498.598 478.012 494.103 477.542 490.035L477 489.851ZM467.865 428.809C463.99 430.773 460.447 433.653 458.981 437.891C458.436 439.464 457.386 442.66 457.617 444.349C457.685 444.845 458.321 445.798 458.559 446.289C459.553 446.974 460.452 447.601 461.719 447.504C462.287 447.461 462.988 447.115 463.515 446.893C468.715 443.278 472.546 437.972 475.293 432.295C473.505 431.164 471.929 430.282 469.922 429.569L467.865 428.809Z"/>
	<path d="M328.998 180.882C331.864 180.966 334.639 181.918 336.806 183.886C337.512 184.527 337.867 185.102 337.929 186.057C338.21 190.341 336.662 195.807 335.84 200.035L332.765 216.815C327.455 244.054 322.025 271.277 314.258 297.947C311.237 308.32 307.908 318.79 303.161 328.513C301.003 332.933 298.588 337.497 295.277 341.181C293.521 343.134 290.594 344.802 287.978 344.903C283.058 345.093 276.545 346.031 272.763 342.356C268.072 337.798 266.534 329.982 265.56 323.749C263.592 311.153 263.553 298.797 263.544 286.075L263.542 260.352C263.53 251.397 261.801 233.242 267.559 226.3C268.836 224.761 270.81 224.769 272.652 224.703C274.915 224.623 278.454 224.48 280.145 226.201C282.735 228.836 283.6 234.679 283.986 238.281C284.407 242.205 284.255 246.224 284.262 250.168L284.283 268.44L284.186 318.971C285.675 317.469 287.088 315.833 288.086 313.954C292.189 306.224 294.217 296.894 296.476 288.477L312.252 216.408L315.733 197.852C316.197 195.397 316.405 192.451 317.278 190.125C318.945 185.683 324.99 182.588 328.998 180.882Z"/>
	<path d="M456.13 3.14855C458.688 3.04251 466.054 2.40594 467.878 3.84123C470.079 5.57263 472.922 6.49202 475.302 7.99326C481.559 11.9404 487.139 18.0443 491.433 24.0234C505.993 44.3 515.728 68.46 523.143 92.1875L537.097 140.999C538.752 147.886 541.159 155.132 542.043 162.147C542.889 168.854 542.221 176.414 542.222 183.203C542.222 188.496 542.9 194.923 542.041 200.098C541.683 202.259 541.745 204.464 541.534 206.641L540.013 218.254C535.959 242.548 527.04 264.551 514.22 285.497C507.042 297.225 498.435 308.047 489.438 318.411C487.603 320.525 485.439 322.343 483.559 324.414C478.697 329.771 473.626 335.252 467.969 339.827C463.761 343.229 458.551 346.273 453.921 349.075C444.096 355.021 433.271 361.427 421.998 364.074C415.462 365.609 409.288 365.751 402.636 365.756C400.153 365.758 397.468 365.98 395.017 365.608C393.053 365.31 391.157 364.488 389.278 363.873C382.556 361.671 375.475 358.842 369.504 355.016C358.411 347.908 350.615 338.468 348.643 325.194C347.952 320.541 347.921 316.004 346.837 311.366C346.238 308.801 346.346 306.03 346.354 303.408C346.378 295.436 347.841 287.376 349.407 279.561C359.289 230.265 378.814 184.971 402.021 140.625C410.561 124.306 429.798 89.4699 448.293 83.874L448.85 83.7128C452.626 82.5745 455.511 82.4772 459.423 82.9256C464.278 84.2402 469.249 85.7404 472.21 90.1568C474.036 92.8804 474.932 95.9596 474.996 99.2471C475.072 103.161 473.716 107.817 473.106 111.719C471.761 120.305 470.848 129.253 469.048 137.738C468.64 139.66 468.539 141.608 468.391 143.563L461.401 143.344L461.432 122.751C461.428 119.41 461.694 115.761 461.307 112.451C461.109 110.758 460.565 107.184 459.217 106.055C458.285 105.273 457.748 105.433 456.641 105.55C444.447 114.534 435.665 128.852 428.079 141.701C421.031 153.638 414.255 166.052 408.555 178.699L397.18 206.055C388.313 227.557 380.269 249.452 374.038 271.876C372.618 276.988 371.377 282.292 370.451 287.516C370.061 289.718 369.924 292.022 369.45 294.195C369.067 295.952 369.097 297.724 368.979 299.512C368.883 300.972 368.456 302.409 368.443 303.866C368.398 309.177 370.405 315.923 372.038 320.948C374.811 329.485 379.443 336.28 387.563 340.361C392.856 343.021 397.696 342.991 403.456 343C409.596 343.009 415.24 342.743 421.137 340.745C448.251 331.554 468.302 308.418 485.119 286.341C489.775 280.228 495.399 273.483 498.713 266.549C503.344 256.857 507.072 246.51 510.485 236.328C514.034 225.742 517.147 214.794 518.615 203.711C518.896 201.593 519.458 199.367 519.587 197.266C520.429 183.559 519.025 170.29 516.744 156.818C513.231 136.073 507.121 115.879 500.035 96.0938L485.487 58.5617L469.871 23.4462C468.013 19.3305 465.567 15.5274 464.111 11.2286L463.909 10.6179C462.128 10.6061 458.674 10.1044 457.083 10.5728C456.304 10.8021 455.18 11.7678 454.498 12.2551L448.424 17.0282C448.477 15.6105 448.241 12.7646 448.632 11.4817C448.884 10.6563 450.082 9.68952 450.668 9.1125C452.474 7.33625 454.278 5.62193 455.805 3.58741L456.13 3.14855Z"/>
	<path d="M785.136 116.209L792.188 116.527C793.122 117.749 792.827 118.608 792.808 120.117C789.759 124.913 787.161 130.101 784.406 135.075C783.16 137.325 781.56 139.339 780.265 141.554L775.787 149.805L743.052 205.852L728.612 230.918C727.463 232.764 726.726 234.851 725.435 236.605C723.363 239.42 721.946 242.488 720.23 245.508L712.967 257.812C712.156 259.29 711.59 260.874 710.718 262.336C709.6 264.21 708.193 265.905 707.061 267.773C705.63 270.136 704.578 272.747 703.213 275.16C702.153 277.034 700.81 278.718 699.707 280.558C698.405 282.729 697.577 285.201 696.289 287.376C694.678 290.096 692.573 292.615 691.207 295.463L682.04 311.705L545.119 548.072L543.07 551.842C541.557 555.205 539.238 558.125 537.428 561.328C536.517 562.94 535.872 564.671 535.001 566.29C531.776 572.29 527.815 577.99 524.328 583.844C522.924 586.202 521.736 588.818 520.252 591.088L506.445 615.295C505.071 617.917 503.306 620.224 501.857 622.793L498.919 628.582L494.482 635.608L483.398 655.233L478.839 662.482L454.192 705.859C453.194 707.621 451.89 709.236 450.859 710.999L439.503 731.022C437.828 733.837 435.918 736.568 434.375 739.453C433.563 740.973 432.995 742.603 432.134 744.117L427.519 751.484L413.729 775.007C412.489 777.111 411.75 779.524 410.499 781.641C409.766 782.882 408.746 783.945 407.958 785.161C406.793 786.958 405.905 788.873 404.822 790.711C404.077 791.976 402.744 793.417 402.608 794.901L402.58 795.576L401.367 796.483C400.712 797.033 400.394 797.433 399.536 797.645C398.846 797.816 398.721 797.554 398.151 797.221C396.511 792.46 393.704 789.174 391.289 784.901L369.387 747.039L359.4 729.102L354.102 720.536C352.933 718.442 352.007 716.19 350.768 714.138C349.755 712.461 348.482 710.96 347.488 709.262C346.155 706.987 345.225 704.484 343.867 702.217C342.561 700.038 340.945 698.038 339.698 695.832C338.738 694.131 338.048 692.287 337.091 690.588L325.778 671.289C325.08 670.087 324.621 668.767 323.877 667.595L215.55 480.585L207.691 467.058L181.888 422.07C180.643 419.861 179.044 417.851 177.809 415.625L169.762 401.197C169.122 400.025 168.763 398.728 168.098 397.581L163.915 391.083L154.495 375.152L146.289 360.364L134.575 340.738L131.314 334.427C129.931 332.038 128.324 329.817 127.013 327.377C126.193 325.85 125.611 324.188 124.74 322.692L103.994 287.866C102.862 285.96 102.094 283.851 101.057 281.895C99.9596 279.823 98.4325 277.993 97.2376 275.977C95.8734 273.674 94.8934 271.149 93.5471 268.83C92.5047 267.034 91.1775 265.417 90.104 263.642L85.4254 254.959C84.2913 253.038 82.7769 251.278 81.8908 249.231C79.908 244.651 76.6781 240.302 74.1017 236.025C73.0728 234.318 72.3515 232.397 71.3314 230.664L59.6189 211.123L41.3347 178.551L36.3442 170.508C35.4446 168.927 34.8148 167.205 33.9229 165.625L24.334 149.901L19.958 141.847L15.1592 133.991C13.4272 130.814 11.8772 127.226 9.59136 124.372C8.92749 123.543 8.35293 122.805 7.88994 121.835C7.06404 120.104 6.93798 118.161 7.61719 116.367L409.091 116.348L391.258 148.495C389.009 149.028 386.08 148.743 383.748 148.751L368.663 148.758L310.011 148.764L61.2128 148.734C62.3772 150.23 63.5003 151.715 64.4695 153.346C65.1012 154.41 65.5473 155.706 66.3599 156.63C67.585 158.025 67.4865 159.794 68.7216 160.99L69.3075 161.523C69.4467 162.565 69.5491 163.153 70.1942 164.023C71.2075 165.39 72.2691 166.729 73.0957 168.22L73.935 169.631C74.8898 171.019 75.1363 172.636 76.0703 173.937C76.3352 174.306 76.5432 174.605 76.7353 175.021C77.8352 177.401 80.0977 179.414 80.9811 181.751C82.1274 184.783 84.1175 188.338 85.9496 191.092C86.8233 192.406 88.1565 193.851 88.7883 195.247C89.0437 195.812 88.9307 196.542 89.2185 197.07C89.5664 197.709 90.3163 198.135 90.7098 198.764C91.2801 199.674 91.4814 200.813 92.0566 201.754C93.4149 203.977 95.0466 206.036 96.3677 208.286C97.5839 210.357 98.3992 212.733 99.6234 214.759C100.611 216.394 102.186 217.762 102.95 219.511L105.575 224.645C106.655 226.472 107.605 228.386 108.763 230.163C109.768 231.706 110.842 232.73 111.176 234.616C111.288 235.246 112.014 235.694 112.484 236.133C112.679 237.008 112.828 237.892 113.343 238.645C115.214 241.379 118.274 245.102 118.9 248.263L119.025 248.918L120.472 249.805C120.555 250.808 120.605 251.559 121.185 252.42L125.74 259.375C127.833 262.897 129.309 266.941 132.001 270.072L132.302 270.412C132.387 271.577 132.453 272.035 133.272 272.949C134.467 274.281 134.78 275.748 135.699 277.242C137.255 279.773 139.721 282.314 140.674 285.098C140.969 285.961 141.146 286.507 141.845 287.132C142.741 287.933 142.571 288.584 142.73 289.747C144.26 291.251 145.085 293.214 146.044 295.107C145.981 289.313 145.312 282.671 146.394 276.968C149.54 260.386 157.179 247.384 167.076 233.96C170.276 229.62 173.963 224.403 178.345 221.208C180.618 219.551 183.3 218.292 185.798 217.011C194.904 212.339 203.874 209.84 214.197 211.483C220.897 212.549 228.182 215.356 232.208 221.114C234.193 223.953 236.285 229.887 235.014 233.335C234.625 234.391 232.278 236.625 231.232 236.914C230.379 237.149 229.119 237.115 228.245 236.987C225.907 236.645 226.82 233.388 225.102 232.377C220.083 229.424 210.491 229.272 204.891 230.554C202.915 231.006 200.898 231.229 198.983 231.927C193.106 234.069 188.572 238.076 184.523 242.728C175.536 253.056 170.26 268.337 166.677 281.333C165.793 284.539 164.457 288.289 164.804 291.628L164.872 292.188C165.031 293.581 165.189 294.853 165.788 296.136L166.049 296.68C166.547 297.747 167.02 298.845 167.715 299.805C171.565 305.124 179.54 306.671 185.547 307.673C189.787 308.381 194.193 308.147 198.487 308.145C202.121 308.143 205.918 308.354 209.512 307.8C219.647 306.24 229.542 304.755 239.453 301.967L249.414 298.913C251.83 298.055 256.525 295.567 258.901 296.155C259.036 297.412 258.972 298.548 258.856 299.805C252.536 304.653 245.789 308.936 239.029 313.139C229.992 318.758 220.359 324.643 209.961 327.25C206.884 328.022 203.365 327.706 200.195 327.714C191.657 327.733 183.335 327.802 174.946 325.906C172.512 325.356 163.35 321.336 162.162 321.68L162.236 323.745L163.574 324.466L163.956 324.655L164.101 326.953C165.821 328.769 166.713 330.98 168.146 332.978C170.538 336.314 172.223 340.182 174.273 343.739C175.536 345.93 177.363 347.915 178.17 350.318C178.514 351.343 178.858 351.88 179.624 352.65L179.883 352.898C180.035 353.774 180.115 354.353 180.664 355.068L238.474 355.365C236.931 355.813 235.29 356.026 233.789 356.569C228.708 358.408 222.263 362.481 218.871 366.749C215.118 371.47 214.548 376.62 215.302 382.502L216.1 387.622L205.469 387.734C203.658 387.743 201.565 387.501 199.805 387.892L199.805 388.353L201.292 389.648C201.378 392.27 204.14 396.157 205.838 398.188C206.953 399.522 206.762 400.389 207.494 401.758C207.898 402.511 208.704 403.028 209.153 403.755C209.691 404.627 209.788 405.674 210.388 406.552C211.912 408.78 213.562 410.91 214.912 413.259C216.075 415.283 216.839 417.478 218.084 419.481C219.032 421.006 220.731 422.634 221.33 424.29C222.266 426.88 223.823 429.876 225.351 432.227C226.65 434.224 228.566 436.269 229.291 438.559C229.676 439.776 230.517 440.481 230.932 441.656C231.789 444.077 233.771 446.855 235.209 449.023C236.124 450.403 236.957 451.265 237.254 452.955L237.305 453.294C238.347 454.218 238.438 454.893 239.085 456.055C239.969 457.641 241.138 459.081 242.052 460.655C242.595 461.59 242.862 462.635 243.394 463.58C245.23 466.839 247.127 469.577 248.574 473.071C249.235 469.959 249.128 466.738 249.857 463.539C250.335 461.444 250.814 458.54 252.734 457.32C253.584 458.731 251.945 464.025 251.89 466.054C251.785 469.884 252.666 473.025 255.361 475.892C258.128 477.999 261.619 479.818 265.095 480.391L268.86 481.272C268.804 480.291 268.171 479.05 267.83 478.104L265.745 471.923C261.353 458.308 255.235 444.243 248.463 431.641L236.16 410.352L226.644 393.863C225.272 391.501 223.612 389.228 222.432 386.771C220.778 383.326 220.231 377.039 221.625 373.406L221.856 372.852C222.504 371.253 223.734 370.073 224.942 368.871C232.24 361.61 244.655 358.714 254.687 358.936C278.367 359.46 302.982 363.361 322.944 376.9C331.833 382.928 341.293 392.935 345.017 403.211C346.094 406.182 346.407 409.39 347.044 412.475C347.915 416.685 348.255 422.895 347.203 427.072L345.868 432.09C342.294 443.925 333.147 453.453 324.584 461.909C319.474 466.956 313.638 472.478 307.269 475.848C294.739 482.478 277.705 491.912 263.211 487.228C260.539 486.364 258.169 485.327 255.664 484.049L255.302 484.424C255.793 484.903 256.277 485.364 256.688 485.916L257.116 486.523C257.909 487.622 258.88 488.669 259.082 490.056C259.259 491.265 260.016 491.708 260.85 492.578C260.891 493.369 260.872 494.184 261.318 494.87C262.895 497.303 266.649 501.163 266.893 503.892C266.979 504.846 268.099 505.258 268.514 506.055C268.809 506.622 268.909 507.744 269.062 508.398C269.839 509.013 270.154 509.228 270.547 510.169C270.761 510.682 270.858 510.95 271.238 511.379C272.198 512.463 272.552 513.022 272.859 514.467C273.01 515.181 273.715 515.547 274.266 516.016C274.46 517.001 274.579 518.055 275.261 518.835C276.424 520.168 277.214 521.881 278.148 523.387C278.958 524.695 279.871 525.513 280.291 527.038C280.513 527.846 280.63 528.176 281.24 528.762C281.783 529.283 281.842 529.306 282.083 530.1C282.961 532.995 285.481 536.387 287.205 538.883C289.464 542.151 290.772 545.99 293.094 549.174C293.824 550.174 294.326 551.307 295.074 552.265C295.726 553.099 296.181 553.632 296.441 554.677C296.75 555.925 297.53 556.54 297.985 557.669C299.013 560.218 300.886 562.094 302.137 564.502C302.401 565.009 302.635 565.453 302.966 565.923C303.957 567.331 304.122 568.8 305.055 570.129C305.448 570.69 305.641 570.99 305.891 571.651C306.696 573.774 308.557 575.626 309.653 577.666C310.245 578.768 311.059 579.764 311.614 580.859C312.057 581.731 312.209 582.655 312.715 583.54L315.795 588.518C316.607 589.71 317.55 590.563 317.869 592.013C318.152 593.303 318.98 593.754 319.432 594.889C320.787 598.292 323.27 600.922 324.989 604.102C326.239 606.413 327.223 608.839 328.607 611.093C329.534 612.603 330.925 613.839 331.564 615.506C332.132 616.988 333.443 618.019 333.853 619.519C334.295 621.138 335.615 622.257 336.025 623.918L336.191 624.667C336.898 625.097 337.247 625.316 337.656 626.06C337.913 626.528 338.089 626.865 338.429 627.296C339.102 628.146 339.629 628.692 339.818 629.787C339.95 630.55 340.084 630.85 340.564 631.465C341.375 632.504 341.617 633.663 342.341 634.716C344.109 637.288 347.301 641.27 347.798 644.234C347.912 644.916 348.732 645.425 349.242 645.898C349.71 648.254 352.369 652.41 353.932 654.347C354.936 655.592 354.957 656.422 355.623 657.741C355.972 658.433 356.629 658.814 356.911 659.579C357.881 662.205 359.978 665.263 361.57 667.617C363.458 670.408 364.788 673.749 366.66 676.662C367.287 677.637 369.046 679.281 369.367 680.216C369.479 680.542 369.34 681.452 369.331 681.836C370.136 682.532 370.706 683.103 371.132 684.094C372.685 687.716 375.39 690.459 377.051 693.92L377.873 695.521C378.251 696.143 378.642 696.696 378.862 697.397C380.114 701.384 384.122 704.435 385.113 708.299C385.3 709.026 385.461 709.367 385.926 709.968C386.228 710.359 386.488 710.661 386.675 711.125C387.425 712.99 389.206 715.657 390.535 717.204C391.016 717.762 391.015 718.983 391.134 719.727L391.992 720.282C393.043 721.039 392.868 721.629 393.051 722.852C394.843 724.888 395.62 727.625 397.388 729.563C398.415 730.688 398.71 731.223 398.959 732.763L399.023 733.217L399.805 733.701L400.825 733.008C401.31 731.537 402.111 730.58 402.665 729.247C403.642 726.893 405.076 724.916 406.358 722.725L413.677 710.156L421.839 695.898C422.97 693.848 423.874 691.647 425.091 689.648C425.923 688.282 427.083 687.145 427.93 685.793C429.241 683.7 430.166 681.34 431.408 679.192L447.245 651.665L451.499 644.851L461.615 626.893C462.706 625.028 464.111 623.356 465.161 621.48C466.342 619.369 467.13 617.045 468.354 614.959C469.327 613.299 470.761 611.983 471.728 610.313L490.551 576.562L495.132 569.159C496.428 566.832 497.47 564.347 498.857 562.073C499.954 560.275 501.309 558.638 502.399 556.836C503.605 554.842 504.426 552.582 505.599 550.586C506.322 549.357 507.36 548.292 508.116 547.07C509.465 544.889 510.46 542.473 511.767 540.252L517.214 531.11C517.975 529.824 518.976 528.647 519.583 527.283C520.627 524.94 522.209 521.931 523.821 519.922C525.648 517.644 526.595 514.628 528.075 512.073C529.509 509.598 532.031 506.591 532.921 503.96C534.048 500.628 536.408 497.478 538.266 494.508C539.845 491.984 541.049 489.255 542.599 486.719C543.686 484.939 545.094 483.346 546.132 481.545C547.366 479.406 548.171 477.014 549.475 474.895C550.39 473.407 551.547 472.202 552.395 470.634C553.419 468.743 554.337 466.119 555.686 464.482L558.227 461.602L555.322 462.724C554.111 463.207 552.996 463.666 551.682 463.771C548.798 464.001 545.553 463.982 543.301 461.943C541.673 460.469 540.238 458.576 540.327 456.25C540.382 454.796 541.46 454.031 542.383 453.043L543.164 453.13C543.953 454.105 544.88 455.442 545.952 456.117C546.885 456.705 549.519 457.4 550.553 457.038C553.916 455.859 554.924 454.357 556.613 451.461C552.174 445.333 545.445 442.179 540.43 436.778C537.825 433.973 536.296 431.008 535.127 427.391C535.548 425.919 535.945 424.361 536.849 423.1C539.121 419.932 545.084 418.229 548.757 417.672C550.438 417.418 551.749 417.698 553.083 418.794C554.341 419.828 555.496 420.835 555.688 422.461C555.011 423.534 554.513 424.098 553.497 424.856C552.796 424.656 552.243 424.492 551.503 424.574L550.781 424.692C547.632 425.183 545.443 425.977 542.749 427.633C544.531 429.547 545.968 431.866 547.923 433.595L555.411 439.914C557.206 441.313 559.709 442.801 561.082 444.608C562.699 446.736 563.134 449.443 563.545 452.012C567.444 442.253 574.362 433.853 578.741 424.365C579.65 422.395 581.068 420.877 582.125 419.007L593.701 398.828C595.096 396.522 597.501 393.925 598.317 391.399C598.699 390.219 599.219 389.337 600.034 388.396L600.548 387.815C598.307 387.093 593.708 387.753 591.247 387.755L562.657 387.764L394.864 387.76L358.415 387.799L347.852 387.826C346.451 387.815 344.323 387.993 342.994 387.649C342.306 387.47 340.863 385.652 340.398 385.088C338.496 382.783 336.644 380.568 334.409 378.571C329.047 373.781 323.018 369.644 316.68 366.267C310.526 362.988 302.839 360.244 296.094 358.547L287.517 356.561C285.645 356.223 283.221 356.323 281.557 355.397C287.851 354.902 294.507 355.314 300.846 355.287L341.648 355.218L356.666 355.282C357.442 355.316 359.406 355.182 360.073 355.476C362.663 356.616 365.311 359.21 367.808 360.716C377.647 366.648 389.371 371.352 400.913 371.432C405.366 371.463 410.136 371.755 414.556 371.264C425.835 370.011 436.347 365.348 446.289 360.161C448.867 358.816 452.695 355.691 455.392 355.321C459.994 354.688 465.377 355.241 470.065 355.24L502.016 355.233L618.97 355.151C620.418 353.721 621.026 351.192 621.985 349.414C623.693 346.248 625.978 343.186 627.832 340.063C625.407 339.954 623.013 339.838 620.69 339.071C607.009 334.554 596.307 312.172 590.219 299.896C588.939 301.073 587.918 302.564 586.746 303.855L577.29 314.578C574.042 318.293 570.345 321.714 566.841 325.193C560.496 331.49 554.047 338.494 545.745 342.214C543.547 343.198 542.928 343.866 540.625 343.016C539.157 342.474 537.936 341.916 536.676 340.956C535.668 340.188 534.541 339.154 534.456 337.824C534.254 334.661 537.379 330.458 539.101 327.93C547.228 315.998 557.325 305.468 566.896 294.727L576.75 282.662C571.409 272.056 563.295 261.468 555.444 252.585C553.811 250.738 551.784 249.198 550.195 247.352C549.191 246.184 549.274 245.176 549.334 243.719C549.462 240.585 552.624 238.456 554.776 236.444C557.582 236.286 562.045 235.873 564.739 236.605C566.906 237.193 569.785 239.822 571.379 241.333C577.07 246.727 581.426 252.002 585.385 258.793C586.599 260.876 587.461 263.956 589.453 265.332C589.779 265.298 590.146 265.394 590.43 265.23C591.139 264.822 592.253 262.996 592.821 262.331L600.864 253.178L664.258 181.313C669.602 175.194 674.795 167.901 681.022 162.713C685.207 159.226 691.604 155.217 697.283 155.727C699.211 156.925 700.669 160.65 701.884 162.701C700.75 165.259 698.944 167.495 697.366 169.793L687.418 183.376L636.914 244.644L619.935 263.691L614.041 270.125C612.504 271.72 610.703 273.275 609.396 275.05C607.269 277.938 605.55 281.374 603.783 284.506C610.517 297.419 618.378 309.448 627.417 320.86C629.134 323.028 631.358 326.456 633.783 327.741C634.568 328.156 634.573 327.959 635.352 327.709C636.203 325.04 637.666 322.056 639.314 319.786C641.49 316.787 642.806 313.538 644.619 310.352C645.702 308.449 647.043 306.683 648.201 304.825C649.654 302.494 650.631 299.838 652.035 297.461C653.16 295.555 654.55 293.814 655.674 291.877C657.339 289.008 658.593 285.886 660.352 283.06C661.287 281.555 662.482 280.222 663.412 278.695L668.251 269.83L689.167 233.234L707.101 202.873L725.03 171.289L730.138 163.086C731.17 161.285 731.894 159.321 732.96 157.541L738.538 148.788L544.731 148.643L536.568 116.349L785.136 116.209ZM251.021 366.557C244.235 367.351 234.261 368.469 229.848 374.473C228.589 376.185 227.576 378.39 228.143 380.563C228.588 382.273 229.877 384.156 230.667 385.747C236.157 396.799 243.405 406.758 249.186 417.578L262.621 445.017C263.81 447.347 264.809 450.158 266.437 452.204C266.264 450.394 266.149 448.561 265.782 446.779C264.936 442.673 265.639 437.498 265.442 433.241L263.616 410.588L260.742 385.288C260.243 381.103 258.626 375.151 259.251 371.081L259.766 370.355C260.799 370.284 261.203 370.168 262.057 370.898C262.82 371.552 263.407 372.974 263.863 373.873C267.918 381.875 268.019 390.56 269.647 399.147C270.531 403.809 270.572 409.173 270.809 413.917L271.924 429.102C272.125 432.028 271.896 434.998 272.106 437.917C272.932 441.833 272.419 445.675 272.744 449.609L274.559 471.094C274.843 473.697 274.458 478.517 276.367 480.424C289.206 478.63 301.442 470.826 311.598 463.223C315.148 460.565 319.091 457.707 322.214 454.578C325.063 451.724 327.973 448.102 330.407 444.87C337.441 435.533 341.964 425.429 340.263 413.553L339.453 409.778C336.44 396.727 325.204 386.955 314.286 380.263C303.323 373.543 290.562 369.959 277.93 367.972C273.027 367.201 268.083 366.994 263.163 366.463C259.857 366.107 254.223 365.709 251.021 366.557Z"/>
	<path d="M251.699 372.479C252.557 372.082 252.409 372.201 253.238 372.461C253.096 373.779 253.542 375.071 253.721 376.373C254.107 379.195 254.223 382.188 254.822 384.961C255.045 385.995 255.162 386.43 254.883 387.472C249.623 388.121 243.66 388.015 238.378 387.544C236.393 385.223 235.085 381.773 233.649 379.056C238.632 373.716 244.691 372.812 251.699 372.479Z"/>
	<path d="M270.092 372.654C273.918 373.586 278.084 373.766 281.994 374.482C293.95 376.672 304.891 380.94 315.037 387.627L273.9 387.657C273.273 386.262 273.28 384.335 272.952 382.812C272.215 379.392 271.163 375.981 270.092 372.654Z"/>
</svg>
